<?xml version="1.0" encoding="UTF-8" standalone="no"?>
<!-- Created with Inkscape (http://www.inkscape.org/) -->

<svg
   xmlns:dc="http://purl.org/dc/elements/1.1/"
   xmlns:cc="http://creativecommons.org/ns#"
   xmlns:rdf="http://www.w3.org/1999/02/22-rdf-syntax-ns#"
   xmlns:svg="http://www.w3.org/2000/svg"
   xmlns="http://www.w3.org/2000/svg"
   xmlns:sodipodi="http://sodipodi.sourceforge.net/DTD/sodipodi-0.dtd"
   xmlns:inkscape="http://www.inkscape.org/namespaces/inkscape"
   width="926.4104"
   height="389.00925"
   id="svg2"
   version="1.1"
   inkscape:version="0.91 r13725"
   sodipodi:docname="logo.svg"
   inkscape:export-filename="/home/dfki.uni-bremen.de/afabisch/Projekte/bolero-dev/learning/bolero/doc/source/_static/logo.svg.png"
   inkscape:export-xdpi="90"
   inkscape:export-ydpi="90">
  <sodipodi:namedview
     id="base"
     pagecolor="#ffffff"
     bordercolor="#666666"
     borderopacity="1.0"
     inkscape:pageopacity="0.0"
     inkscape:pageshadow="2"
     inkscape:zoom="0.70710678"
     inkscape:cx="522.90827"
     inkscape:cy="230.29855"
     inkscape:document-units="px"
     inkscape:current-layer="svg2"
     showgrid="false"
     inkscape:window-width="1366"
     inkscape:window-height="709"
     inkscape:window-x="1920"
     inkscape:window-y="0"
     inkscape:window-maximized="1"
     fit-margin-top="0"
     fit-margin-left="0"
     fit-margin-right="0"
     fit-margin-bottom="0" />
  <defs
     id="defs4" />
  <metadata
     id="metadata7">
    <rdf:RDF>
      <cc:Work
         rdf:about="">
        <dc:format>image/svg+xml</dc:format>
        <dc:type
           rdf:resource="http://purl.org/dc/dcmitype/StillImage" />
        <dc:title></dc:title>
      </cc:Work>
    </rdf:RDF>
  </metadata>
  <g
     transform="translate(49.926407,-716.10778)"
     id="layer1"
     inkscape:groupmode="layer"
     inkscape:label="Layer 1" />
  <path
     style="opacity:1;fill:none;fill-opacity:1;stroke:#000000;stroke-width:4.02120686;stroke-miterlimit:4;stroke-dasharray:none;stroke-opacity:1"
     d="M 87.182982,105.61927 C 78.335485,103.76625 71.170047,99.681639 68.73583,95.103599 c -2.231498,-4.19679 -1.546356,-12.154378 1.480352,-17.193676 1.445708,-2.407015 2.628558,-4.783614 2.628558,-5.28132 0,-3.365265 -14.410133,-8.907968 -27.278143,-10.492254 -15.156194,-1.865989 -45.4080711,-0.199498 -79.820963,4.397121 -14.204517,1.897329 -32.231377,4.683756 -35.433577,5.476987 -1.46959,0.36404 -1.60868,-4.216859 -1.60868,-52.979644 0,-29.357983 0.33783,-53.374932 0.75073,-53.371003 0.41291,0.0039 8.85869,0.724951 18.76841,1.602281 9.909721,0.877325 28.960605,2.094476 42.335295,2.70479 20.369675,0.929502 26.707508,0.988917 39.038283,0.365965 8.09637,-0.409026 17.340335,-1.194516 20.542145,-1.745531 7.003129,-1.20521 22.7065,-5.528306 22.7065,-6.251041 0,-0.283332 -1.013494,-0.850191 -2.252209,-1.259688 -5.558892,-1.837649 -7.936904,-5.206578 -7.862261,-11.138449 0.133551,-10.61374 12.468559,-16.615622 32.385552,-15.757922 9.881348,0.42552 19.161218,3.05679 23.382238,6.629933 4.06228,3.438767 4.01901,9.151315 -0.11409,15.064318 -2.62948,3.761859 -2.75247,4.254699 -1.43525,5.750983 0.79238,0.900089 3.91995,2.471916 6.95016,3.492948 8.08337,2.723697 19.26655,3.368774 43.31772,2.498681 18.40847,-0.665956 60.63577,-2.818244 71.40304,-3.639351 l 5.11735,-0.390242 0.69143,5.394239 c 0.98851,7.711862 3.34315,15.455587 6.73994,22.1656658 3.25441,6.4288086 11.2716,17.798729 12.55015,17.798528 0.44783,-7.1e-5 2.16555,-1.813159 3.81717,-4.029088 2.36314,-3.170549 3.89565,-4.34618395 7.19286,-5.51784495 9.28176,-3.29827645 21.25826,-2.30412545 29.64369,2.46067295 8.63988,4.909385 13.75896,14.7949182 11.76229,22.7143492 -2.56672,10.180482 -11.49318,14.151842 -29.72153,13.223044 -4.32658,-0.220461 -11.60327,-0.588558 -16.17042,-0.818 l -8.30392,-0.417173 -4.24917,2.862745 c -2.33704,1.574509 -5.10675,4.011545 -6.15493,5.41564 -2.51542,3.369556 -3.0721,9.424039 -1.27446,13.86086 l 1.43992,3.553934 -49.63861,0 c -64.78673,0 -77.78447,0.912302 -86.14513,6.046437 -6.49237,3.986862 -6.40665,4.908707 1.57064,16.892596 3.96159,5.951299 4.47687,12.389409 1.23814,15.46977 -3.62393,3.4467 -10.79357,5.50089 -19.827479,5.6808 -4.277435,0.0852 -9.341652,-0.2284 -11.714589,-0.72539 l 0,0 z"
     id="path5666"
     inkscape:connector-curvature="0" />
  <path
     style="opacity:1;fill:none;fill-opacity:1;stroke:#000000;stroke-width:4.02120686;stroke-miterlimit:4;stroke-dasharray:none;stroke-opacity:1"
     d="m 417.01178,103.01195 c -14.30677,-2.10967 -21.98955,-6.526611 -23.84097,-13.706531 -1.40491,-5.448265 2.92976,-10.230568 11.30209,-12.469249 1.78012,-0.475982 3.0772,-1.174078 2.8824,-1.551325 -0.608,-1.177444 -13.46326,-4.211121 -23.57667,-5.56378 -18.20444,-2.434826 -58.5411,-4.91838 -105.27125,-6.481607 -10.73553,-0.359128 -20.89792,-0.654841 -22.5831,-0.657135 -2.83102,-0.0039 -3.16011,-0.246352 -4.32866,-3.189656 -0.69559,-1.752012 -1.28182,-5.100574 -1.30274,-7.44124 -0.0331,-3.707665 0.39544,-4.720762 3.32767,-7.866201 1.85115,-1.985731 4.69224,-4.336232 6.31354,-5.223333 2.74874,-1.503986 3.45852,-1.586818 10.5103,-1.226553 22.96438,1.173205 25.76203,1.186019 31.31773,0.143418 10.03812,-1.883779 15.78355,-8.021074 15.78355,-16.860088 0,-14.4824372 -15.14756,-25.2887802 -33.71406,-24.0517856 -8.52334,0.567873 -13.29211,2.64762945 -16.89422,7.3679134 l -3.06163,4.012049 -1.58207,-1.750455 c -8.5898,-9.5040344 -16.8187,-28.8588808 -16.8187,-39.5585488 l 0,-3.144494 4.25417,-0.364408 c 6.5542,-0.561412 46.92586,-2.811724 70.03946,-3.90399 27.05929,-1.278725 57.22013,-1.283313 65.58605,-0.01 7.4976,1.141175 18.22253,4.193164 20.20727,5.750375 1.25248,0.982695 1.15021,1.739909 -0.81839,6.059354 -1.23736,2.714973 -2.65305,7.219009 -3.14597,10.008957 -1.86671,10.5655868 2.7268,16.5570228 14.47622,18.88167685 6.59785,1.30540495 11.09533,1.23081795 18.83506,-0.312378 12.6105,-2.51435045 20.74298,-9.26956505 20.7625,-17.24626585 0.0115,-4.704026 -0.74715,-6.180557 -6.16134,-11.991432 -2.97858,-3.196815 -3.89604,-4.77714 -3.44574,-5.935309 0.77472,-1.992613 7.93731,-5.772203 12.88969,-6.801693 4.51498,-0.938562 25.23287,-0.970017 38.83586,-0.05893 22.49599,1.506661 92.62746,7.958273 93.64421,8.61462 0.22862,0.147585 -0.25929,1.98367 -1.08425,4.080187 -4.27978,10.876414 -3.75702,18.195922 1.84133,25.7816264 6.23441,8.4475394 8.52914,9.1157374 18.30527,5.3302484 8.07477,-3.126693 12.63169,-3.974164 21.35753,-3.971941 9.07218,0.0026 14.59186,1.58414305 18.88856,5.413094 4.01058,3.573965 5.49244,7.5428892 4.89159,13.1012222 -1.08361,10.024271 -9.45291,18.026728 -21.12419,20.198279 -9.40745,1.750345 -15.51769,0.75954 -27.53085,-4.464265 -6.69543,-2.911447 -9.9914,-2.984141 -14.13131,-0.31168 -11.08747,7.157352 -10.74818,15.644101 1.34938,33.752507 3.00187,4.493407 5.04773,8.169829 4.54634,8.169829 -0.50138,0 -13.18869,-1.155242 -28.194,-2.567207 -66.67461,-6.273928 -99.86251,-8.217587 -111.23388,-6.514439 -5.06424,0.758494 -11.05554,3.902989 -11.44822,6.008533 -0.24724,1.325643 1.2713,2.62931 7.85977,6.747616 6.88391,4.30298 8.3621,5.602557 9.41376,8.276274 1.34888,3.429379 0.56829,7.283509 -1.98778,9.814429 -6.41353,6.350451 -29.31746,10.164541 -46.14131,7.683711 l 0,0 z"
     id="path5672"
     inkscape:connector-curvature="0" />
  <path
     style="opacity:1;fill:none;fill-opacity:1;stroke:#000000;stroke-width:4.02120686;stroke-miterlimit:4;stroke-dasharray:none;stroke-opacity:1"
     d="m 802.88448,83.489709 c -4.31071,-0.499534 -13.13186,-4.265664 -15.68319,-6.695831 -2.7264,-2.596924 -2.66361,-5.746026 0.28342,-14.215736 2.45765,-7.063224 1.79828,-13.336971 -1.71415,-16.309682 -6.91174,-5.849692 -25.69259,-7.888687 -40.10339,-4.353944 -10.45541,2.564551 -16.7061,6.785475 -18.74475,12.657828 -2.30288,6.633489 1.09886,11.50137 11.65052,16.671801 3.96246,1.941657 6.36294,3.572046 6.18396,4.200104 -0.1609,0.564597 -3.51683,2.083969 -7.45764,3.37638 -9.03507,2.963108 -18.21285,3.534891 -40.38153,2.515816 -27.34445,-1.257 -93.88229,-6.835152 -95.69033,-8.022127 -1.56287,-1.02602 -10.82635,-15.39243 -13.32053,-20.658333 -2.94694,-6.221815 -2.78412,-11.551378 0.48217,-15.782602 2.91851,-3.780701 7.53067,-6.607823 10.75952,-6.595281 1.19648,0.0045 5.47519,1.434801 9.50825,3.178122 8.34778,3.608393 15.0749,4.913133 21.98132,4.263312 10.39997,-0.978521 17.49176,-4.791924 22.95114,-12.341306 2.47181,-3.41809 2.77199,-4.564518 2.77987,-10.616654 0.008,-6.3285292 -0.19219,-7.0190912 -2.98043,-10.2690672 -3.5975,-4.19323495 -8.12556,-6.263698 -15.90401,-7.2721114 -8.13801,-1.055027 -17.06534,0.08464 -26.354,3.36436145 -8.00284,2.82571295 -10.26748,3.08124095 -12.54042,1.41496295 -1.91975,-1.40735095 -6.51918,-7.283878 -8.41314,-10.749158 -2.21253,-4.0481438 -1.93896,-11.6759458 0.6733,-18.7727708 2.241,-6.088244 2.35584,-6.226867 4.88279,-5.894173 6.1622,0.811292 36.55598,3.661308 59.64376,5.592767 20.09867,1.681405 28.7682,2.103929 44.04319,2.146531 18.7393,0.05227 19.11192,0.02643 25.36812,-1.757478 9.03657,-2.576732 13.1428,-4.432279 13.15729,-5.945583 0.007,-0.711924 -1.57463,-2.735353 -3.51431,-4.496509 -8.14992,-7.399807 -8.71777,-17.41279 -1.31621,-23.209295 11.02262,-8.632338 43.52709,-8.480858 52.71149,0.245654 2.06793,1.964841 2.30845,2.777516 1.83298,6.193499 -0.301,2.16255 -2.13701,6.671381 -4.08002,10.019626 -4.65323,8.018592 -5.06575,9.57287 -3.275,12.339556 4.36625,6.745793 19.50313,9.133513 48.42054,7.637959 24.00634,-1.241563 61.77851,-4.947392 96.17206,-9.435448 l 3.259,-0.425271 -0.25606,53.534252 -0.25605,53.534252 -9.50933,1.472692 c -14.70145,2.276798 -48.07694,6.498103 -63.06184,7.976023 -12.92181,1.27444 -45.90071,2.21149 -52.18836,1.482862 z"
     id="path5674"
     inkscape:connector-curvature="0" />
  <text
     xml:space="preserve"
     style="font-style:normal;font-weight:normal;font-size:40px;line-height:125%;font-family:Sans;letter-spacing:0px;word-spacing:0px;fill:#000000;fill-opacity:1;stroke:none"
     x="63.926407"
     y="275.25439"
     id="text5676"
     sodipodi:linespacing="125%"><tspan
       sodipodi:role="line"
       id="tspan5678"
       x="63.926407"
       y="275.25439"
       style="font-style:italic;font-variant:normal;font-weight:normal;font-stretch:normal;font-size:212.5px;font-family:'Century Schoolbook L';-inkscape-font-specification:'Century Schoolbook L Italic';fill:#000000;fill-opacity:1">BOLeRo</tspan></text>
  <path
     style="opacity:1;fill:none;fill-opacity:1;stroke:#000000;stroke-width:4.02120686;stroke-miterlimit:4;stroke-dasharray:none;stroke-opacity:1"
     d="m 155.72504,459.4455 c -8.8475,-1.85302 -16.01294,-5.93763 -18.44715,-10.51567 -2.2315,-4.19679 -1.54636,-12.15438 1.48035,-17.19368 1.44571,-2.40701 2.62856,-4.78361 2.62856,-5.28132 0,-3.36526 -14.41014,-8.90797 -27.27815,-10.49225 -15.156187,-1.86599 -45.408067,-0.1995 -79.820959,4.39712 -14.204517,1.89733 -32.231377,4.68375 -35.433577,5.47699 -1.469587,0.36404 -1.608677,-4.21686 -1.608677,-52.97965 0,-29.35798 0.33783,-53.37493 0.750727,-53.371 0.41291,0.004 8.85869,0.72495 18.76841,1.60228 9.909721,0.87733 28.960605,2.09448 42.335295,2.70479 20.369674,0.9295 26.707504,0.98892 39.038284,0.36597 8.096367,-0.40903 17.340337,-1.19452 20.542147,-1.74554 7.00313,-1.20521 22.7065,-5.5283 22.7065,-6.25104 0,-0.28333 -1.0135,-0.85019 -2.25221,-1.25968 -5.55889,-1.83765 -7.93691,-5.20658 -7.86226,-11.13845 0.13355,-10.61374 12.46856,-16.61563 32.38555,-15.75793 9.88135,0.42552 19.16122,3.05679 23.38224,6.62994 4.06227,3.43876 4.01901,9.15131 -0.11409,15.06432 -2.62948,3.76185 -2.75247,4.25469 -1.43525,5.75098 0.79238,0.90009 3.91994,2.47191 6.95016,3.49295 8.08337,2.72369 19.26655,3.36877 43.31772,2.49868 18.40847,-0.66596 60.63577,-2.81825 71.40304,-3.63935 l 5.11735,-0.39025 0.69143,5.39424 c 0.98851,7.71187 3.34315,15.45559 6.73994,22.16567 3.25441,6.42881 11.2716,17.79873 12.55015,17.79853 0.44783,-7e-5 2.16555,-1.81316 3.81717,-4.02909 2.36314,-3.17055 3.89565,-4.34618 7.19286,-5.51785 9.28176,-3.29827 21.25826,-2.30412 29.64369,2.46068 8.63988,4.90938 13.75896,14.79492 11.76229,22.71435 -2.56672,10.18048 -11.49318,14.15184 -29.72153,13.22304 -4.32658,-0.22046 -11.60327,-0.58856 -16.17042,-0.818 l -8.30392,-0.41717 -4.24917,2.86274 c -2.33704,1.57451 -5.10675,4.01155 -6.15493,5.41564 -2.51542,3.36956 -3.0721,9.42404 -1.27446,13.86086 l 1.43992,3.55394 -49.63861,0 c -64.78673,0 -77.78447,0.9123 -86.14513,6.04643 -6.49237,3.98686 -6.40666,4.90871 1.57064,16.8926 3.96158,5.9513 4.47687,12.38941 1.23813,15.46977 -3.62392,3.4467 -10.79356,5.50089 -19.82747,5.6808 -4.27744,0.0852 -9.34165,-0.2284 -11.71459,-0.72539 l 0,0 z"
     id="path5666-3"
     inkscape:connector-curvature="0" />
  <path
     style="opacity:1;fill:none;fill-opacity:1;stroke:#000000;stroke-width:4.02120686;stroke-miterlimit:4;stroke-dasharray:none;stroke-opacity:1"
     d="m 485.55384,456.83818 c -14.30677,-2.10967 -21.98955,-6.52661 -23.84097,-13.70653 -1.40491,-5.44827 2.92976,-10.23057 11.30209,-12.46925 1.78012,-0.47598 3.0772,-1.17408 2.8824,-1.55133 -0.608,-1.17744 -13.46326,-4.21112 -23.57667,-5.56378 -18.20444,-2.43482 -58.5411,-4.91838 -105.27125,-6.4816 -10.73553,-0.35913 -20.89792,-0.65484 -22.5831,-0.65714 -2.83102,-0.004 -3.16011,-0.24635 -4.32866,-3.18965 -0.69559,-1.75202 -1.28182,-5.10058 -1.30274,-7.44124 -0.0331,-3.70767 0.39544,-4.72077 3.32767,-7.86621 1.85115,-1.98573 4.69224,-4.33623 6.31354,-5.22333 2.74874,-1.50398 3.45852,-1.58682 10.5103,-1.22655 22.96438,1.1732 25.76203,1.18602 31.31773,0.14342 10.03812,-1.88378 15.78355,-8.02108 15.78355,-16.86009 0,-14.48244 -15.14756,-25.28878 -33.71406,-24.05179 -8.52334,0.56788 -13.29211,2.64763 -16.89422,7.36792 l -3.06163,4.01205 -1.58207,-1.75046 c -8.5898,-9.50403 -16.8187,-28.85888 -16.8187,-39.55855 l 0,-3.14449 4.25417,-0.36441 c 6.5542,-0.56141 46.92586,-2.81172 70.03946,-3.90399 27.05929,-1.27872 57.22013,-1.28331 65.58605,-0.01 7.4976,1.14118 18.22253,4.19316 20.20727,5.75038 1.25248,0.98269 1.15021,1.7399 -0.81839,6.05935 -1.23736,2.71497 -2.65305,7.21901 -3.14597,10.00896 -1.86671,10.56558 2.7268,16.55702 14.47622,18.88167 6.59785,1.30541 11.09533,1.23082 18.83506,-0.31237 12.6105,-2.51435 20.74298,-9.26957 20.7625,-17.24627 0.0115,-4.70403 -0.74715,-6.18056 -6.16134,-11.99143 -2.97858,-3.19682 -3.89604,-4.77714 -3.44574,-5.93531 0.77472,-1.99261 7.93731,-5.7722 12.88969,-6.80169 4.51498,-0.93857 25.23287,-0.97002 38.83586,-0.0589 22.49599,1.50666 92.62746,7.95827 93.64421,8.61462 0.22862,0.14758 -0.25929,1.98367 -1.08425,4.08018 -4.27978,10.87642 -3.75702,18.19592 1.84133,25.78163 6.23441,8.44754 8.52914,9.11574 18.30527,5.33025 8.07477,-3.1267 12.63169,-3.97417 21.35753,-3.97194 9.07218,0.003 14.59186,1.58414 18.88856,5.41309 4.01058,3.57397 5.49244,7.54289 4.89159,13.10122 -1.08361,10.02427 -9.45291,18.02673 -21.12419,20.19828 -9.40745,1.75035 -15.51769,0.75954 -27.53085,-4.46426 -6.69543,-2.91145 -9.9914,-2.98414 -14.13131,-0.31168 -11.08747,7.15735 -10.74818,15.6441 1.34938,33.7525 3.00187,4.49341 5.04773,8.16983 4.54634,8.16983 -0.50138,0 -13.18869,-1.15524 -28.194,-2.56721 -66.67461,-6.27392 -99.86251,-8.21758 -111.23388,-6.51443 -5.06424,0.75849 -11.05554,3.90298 -11.44822,6.00853 -0.24724,1.32564 1.2713,2.62931 7.85977,6.74761 6.88391,4.30298 8.3621,5.60256 9.41376,8.27628 1.34888,3.42938 0.56829,7.28351 -1.98778,9.81443 -6.41353,6.35045 -29.31746,10.16454 -46.14131,7.68371 l 0,0 z"
     id="path5672-6"
     inkscape:connector-curvature="0" />
  <path
     style="opacity:1;fill:none;fill-opacity:1;stroke:#000000;stroke-width:4.02120686;stroke-miterlimit:4;stroke-dasharray:none;stroke-opacity:1"
     d="m 871.42654,437.31594 c -4.31071,-0.49954 -13.13186,-4.26567 -15.68319,-6.69583 -2.7264,-2.59693 -2.66361,-5.74603 0.28342,-14.21574 2.45765,-7.06322 1.79828,-13.33697 -1.71415,-16.30968 -6.91174,-5.84969 -25.69259,-7.88869 -40.10339,-4.35395 -10.45541,2.56456 -16.7061,6.78548 -18.74475,12.65783 -2.30288,6.63349 1.09886,11.50137 11.65052,16.6718 3.96246,1.94166 6.36294,3.57205 6.18396,4.20011 -0.1609,0.56459 -3.51683,2.08397 -7.45764,3.37638 -9.03507,2.96311 -18.21285,3.53489 -40.38153,2.51581 -27.34445,-1.257 -93.88229,-6.83515 -95.69033,-8.02212 -1.56287,-1.02602 -10.82635,-15.39243 -13.32053,-20.65834 -2.94694,-6.22181 -2.78412,-11.55137 0.48217,-15.7826 2.91851,-3.7807 7.53067,-6.60782 10.75952,-6.59528 1.19648,0.005 5.47519,1.4348 9.50825,3.17812 8.34778,3.6084 15.0749,4.91314 21.98132,4.26331 10.39997,-0.97852 17.49176,-4.79192 22.95114,-12.3413 2.47181,-3.41809 2.77199,-4.56452 2.77987,-10.61665 0.008,-6.32853 -0.19219,-7.0191 -2.98043,-10.26907 -3.5975,-4.19324 -8.12556,-6.2637 -15.90401,-7.27211 -8.13801,-1.05503 -17.06534,0.0846 -26.354,3.36436 -8.00284,2.82571 -10.26748,3.08124 -12.54042,1.41496 -1.91975,-1.40735 -6.51918,-7.28388 -8.41314,-10.74916 -2.21253,-4.04814 -1.93896,-11.67594 0.6733,-18.77277 2.241,-6.08824 2.35584,-6.22686 4.88279,-5.89417 6.1622,0.81129 36.55598,3.66131 59.64376,5.59277 20.09867,1.6814 28.7682,2.10393 44.04319,2.14653 18.7393,0.0523 19.11192,0.0264 25.36812,-1.75748 9.03657,-2.57673 13.1428,-4.43228 13.15729,-5.94558 0.007,-0.71193 -1.57463,-2.73536 -3.51431,-4.49651 -8.14992,-7.39981 -8.71777,-17.41279 -1.31621,-23.2093 11.02262,-8.63234 43.52709,-8.48086 52.71149,0.24566 2.06793,1.96484 2.30845,2.77751 1.83298,6.1935 -0.301,2.16255 -2.13701,6.67138 -4.08002,10.01962 -4.65323,8.01859 -5.06575,9.57287 -3.275,12.33956 4.36625,6.74579 19.50313,9.13351 48.42054,7.63796 24.00634,-1.24157 61.77851,-4.9474 96.172,-9.43545 l 3.259,-0.42527 -0.256,53.53425 -0.2561,53.53425 -9.5093,1.47269 c -14.7014,2.2768 -48.07692,6.49811 -63.06182,7.97603 -12.92181,1.27444 -45.90071,2.21149 -52.18836,1.48286 z"
     id="path5674-7"
     inkscape:connector-curvature="0" />
  <rect
     style="opacity:1;fill:none;fill-opacity:1;stroke:#000000;stroke-width:10;stroke-miterlimit:4;stroke-dasharray:none;stroke-dashoffset:0;stroke-opacity:1"
     id="rect4215"
     width="916.4104"
     height="379.00925"
     x="5"
     y="5" />
</svg>
